<?xml version="1.0" encoding="UTF-8"?>
<svg id="Layer_1" data-name="Layer 1" xmlns="http://www.w3.org/2000/svg" viewBox="0 0 999 282">
  <defs>
    <style>
      .cls-1 {
        fill: #fff;
      }
    </style>
  </defs>
  <path d="M144.49,241.74c-6.77,1.11-13.62.2-20.43.21-1-.49-2.44-1-3.47-1.11l-4.9-.54-4.61-1.15-4.99-1.34c-5.09-1.36-9.82-3.27-14.5-5.45-11.1-5.18-20.84-12.26-29.52-20.87l-3.86-4.22-6.28-7.7-5.37-8.14c-1.65-2.49-3.06-5.1-4.27-7.87l-2.74-6.3-1.42-4.07-1.2-3.21-1.4-5.23-1.24-4.71c-.51-1.95-.67-3.82-1.01-5.84l-1.05-6.25c-.48-6.71-.37-13.14-.06-19.92l1-4.42c.38-1.69.25-3.36.59-4.84l1.15-5.12,1.29-5.12c.48-1.89,1.52-4.12,2.18-6.04l1.11-3.23c3.17-9.19,8.6-17.49,14.48-25.24,4.35-5.74,9.26-10.61,14.6-15.41.87-.78,1.8-1.57,2.73-2.25l6.31-4.6c4.55-3.32,12.76-7.64,17.89-9.62l6.2-2.39,3.95-1.28,5.36-1.32,5.2-1.4c1.31-.35,3.69-.13,5.18-.45,1.59-.33,3.58-1.2,5.18-1.21l15.98-.05c1.79,0,3.81,1.1,5.68,1.24l5.16.38,5.61,1.47,4.47,1.1c3.57.88,6.97,2.56,10.57,3.82,8.48,2.96,15.86,7.98,23.12,13.2l6.53,5.57c10.29,8.76,18.58,19.62,23.98,32.03l2.9,6.66,1.04,2.97,2.16,6.04,1.29,5.09,1.24,5.05.49,4.92.99,4.44c.24,6.59.87,13.01-.09,19.48l-1.42,9.54-1.19,5.32-1.38,5.58-1.34,3.95-1.36,3.91-1.09,2.68-4.1,8.5-6.61,10.86-4.26,5.7-5.42,6.02-5.28,5.24-8.39,7.07-7.63,4.98-2.27,1.64c-3.23,2.33-7.31,3.96-11.05,5.35l-3.58,1.33-3.44,1.29-3.1,1.21-6,1.46-5.34,1.14-9,1.48ZM196.77,203.45c2.25-1.08,3.11-4.23,3.03-6.37-.23-6-3.55-8.38-9.25-9.06l-6.17-.73c-4.38-.52-8.12-1.43-11.45-4.91-1.11-1.16-2.68-3.18-3.4-4.72l-2.7-5.8-2.07-4.64c-1.35-3.01-2.83-5.83-5.17-8.3s-4.45-4.86-6.1-8.04l.11-5.47c.03-1.67,2.6-3.03,3.86-3.94,5.48-3.96,5.51-9.88,10.26-11.75l11.44-4.51,4.55-1.31,4.12-1.06c3.3-.85,6.48-2.07,8.95-4.57l.75-2.27c.66-2.02.8-3.1.14-5.18s-1.95-4.85-4.97-5.15c-8.14-.79-16.26-.62-24.74-.55-.8,0-2.38-.82-3.12-.91-2.82-.37-6.3-.27-9.22-.22-.47.25-1.73.97-2.21,1.02-6.46.69-9.92,7.73-8.46,11.01.77,1.74.37,3.05-.08,4.75-.74,2.79-1.47,5.44-3.29,7.72l-4.24,5.33c-3.82,4.8-10.38,11.39-12.26,6.66-.93-2.34-.74-4.03.24-6.1l1.68-3.53.04-24.24c2.02-1.86,1.52-3.92.58-6.17l-1.8-4.29c-.99-2.35-2.07-4.91-1.1-7.66,1.55-4.41,7.25-6.51,3.74-13.56-1.46-2.94-4.44-5-7.63-6.27l-3.9-1.56c-6.54-.08-12.84-.27-19.45.13-3.53.21-13.88,5.9-11.16,10.04s7.43,5.55,11.85,7.25l3.32,1.27c1.6.61,3.81,3.43,4.17,5.54.61,3.59.45,7.84.11,11.58-.09,1-1.13,3.02-1.01,3.98l1.03,8.19c.22,1.76.29,3.65.92,5.2,1.25,4.93-.23,9.75-.51,14.78-.41,7.31-.18,14.56-.18,21.85.26.58,1.02,2.07,1.03,2.67.05,4.01.12,8.84-.17,12.8l-.43,5.7-.58,4.27c-.48,3.53-4.03,3.96-6.81,4.78l-3.78,1.12c-2.68,2.97-4.49,7.09-3.49,10.97,1.61,6.19,3.88,3.95,6.84,5.82l34.28-.08c1.9,0,3.98-1.91,6.17-.72l3.9-3.37-.12-5.57c-1.63-2.57-3.73-4.43-6.09-6.07-.88-.61-2.47-2.25-3.49-2.41-5.82-.91-10.37,1.72-10.26-2.3.07-2.78-.29-5.79.21-8.5.67-3.6,3.78-6.52,5.93-9.28s4.25-5.26,6.83-7.88c1.81.13,3.4,1.5,4.26,2.9l4.42,7.14c1.71,2.76,3.23,5.45,4.52,8.47,2.03,4.78,9.32,2.27,8.24,10.16l-2.38,1.99-5.22-.04c-.88,1.5-1.56,3.49-2.15,5.24-1.53,4.55,2.22,9.14,6.43,9.95,7.47,1.44,15.41.65,23.38.5l14.93-.27c1.03-.02,3.24-.89,4.35-1.42Z"/>
  <path d="M624.11,205.25c-1.84,0-8.05,5.6-14.35,2.03-3.15-1.79-6.56-2.38-10.3-2.18l-29.77-.16c-.89-.4-2.35-.93-3.12-.94l-13.92-.09-3.48-1.72c-2.92-1.44-5.34-4.72-5.57-8.29-.17-2.76,1.23-7.02,3.49-8.67,4.31-3.16,12.79-4.2,9.5-8.37-.16-2.44-.32-5.37.14-7.72l.9-4.61.59-5.88c.2-1.96.62-3.67.79-5.63l.76-8.58-.82-5.88c-.22-1.58-.14-2.82-.77-4.34-.42-1,.07-2.28.66-3.42.24-1.09.3-3.57.1-4.68-.52-2.87-3.34-3.46-5.21-4.84l-4.63-3.42c-.8-.59-2.04-2.43-2.56-3.32-1.96-3.33-.2-6.89,1.7-9.72,1.66-2.47,3.27-4.47,6.21-6.12,2.07-.32,5.59-.41,7.9.12l3.62,1.34,7.94,1.51c3.87.74,7.7,1.44,11.47.33,2.8-.82,5.36-1.62,7.69-3.39l3.99-.29,8.5.21c5.08.12,9.68,4.08,12.69,5.15,1.39.49,4.65.43,6.03-.05l3.68-1.29,5.03-2.11,4.33-1.35c2-.62,5.92-.8,8.04-.05l3.95,1.38c3.08,1.07,5.77,2.83,8.39,4.57,4.82,3.2,8.61,8.17,9.97,13.71.56,2.3,1.26,4.5.71,7.07s-1.22,6.7-.83,9.2c.06.41.83,1.26,1.01,1.6.22.42-.94,1.48-.95,1.99l-.2,7c-1.97,5.07-1.65,9.34-.18,14.42l.43,8.12c.07,1.29.98,2.9.92,4.05-.38,7.03,3.41,12.48,9.25,15.67,2.57,1.41,3.2,3.83,2.91,6.53-.73,6.75-5.21,8.06-11.23,10.83l-12.04.19c-2.97-1.8-6.21-1.65-9.59-1.39l-3.65,1.05c-3.26.94-6.9.38-10.37.4l-9.77.05ZM593.18,178.8c2.76.69,5.19-.31,6.63-2.82v-9.75s-.82-3.21-.82-3.21c-.11-2.27.05-5.1-1.09-6.89-.98-1.54-3.06-2.57-2.99-4.7.12-3.54,5.24-3.11,6.79-7.83s.92-6.87-.13-10.57l-1.33-4.68c-.43-1.51-.64-2.34-1.83-3.31-1.09-.9-2-1.55-3.17-1.69-.9-.11-2.73.87-2.97,1.72l-1.03,3.64c-.83,2.93-.96,7.2-3.84,9.12-1.16.77-4.29,1.55-4.32,3.11l-.19,9.1c-.05,2.21,2.05,3.51,3.84,4.3,4.4,3.94.57,7.12.16,9.32-.46,2.48-.5,4.89-1.56,7.46-.54,1.31-2.65,3.86-1.38,5.34l4.51,5.25,4.71-2.91ZM644.34,177.99c.72-.4.47-2.75.73-3.53l2.39-7.28c1.03-3.14-.19-5.76-2.46-7.84l.2-7.75.94-3.45c-.15-4.85-.64-7.12,1.83-11.67.87-1.6,1.78-3.3.43-4.88-1.81-2.11-4.09-4.81-6.96-5.29l-4.89-.82c-3.53,1.04-7.06,2.93-8.84,6.29-.62,1.17.47,4.14,1.32,5.23,2.82,3.6,3.05,7.39,1.67,11.64l-1.21,3.73-1.34,4.84c-.88,3.18-1.03,7.53.05,10.47,2.39,6.51.28,10.1.95,14.81.13.91,2.21,2.15,3.12,1.97.86-.18,2.14-.91,3.11-1.45l8.96-4.99Z"/>
  <path d="M471.81,202.7c-1.8.94-3.98,1.09-5.76,1.49l-6.52,1.48c-1.83.42-3.56,1-5.53,1l-10.49-.02-5.14-.9-6.9-1.54-5.28-1.26c-1.4-.33-2.44-1.18-3.37-2.22l-7.34-8.25-4.09-5.16c-2.36-2.98-2.02-14.13-1.09-20.07l.75-4.81c1.05-6.75,4.24-12.24,10.81-14.61,2.12-.76,3.36-2.97,3.11-5.21-4.9-3.97-8.7-2.94-10.6-10.13-1.03-3.9-1.3-8.67-.07-12.69l.87-2.85c.96-3.16,3.16-6.92,6.03-8.69l6.58-4.06,3.49-1.26,4.26-1.41,4.12-1.22,5.77-1.37c3.35-.8,7.27-.59,10.82-.64l11.35-.16c2.57-.04,5.81.21,8.12.77l5.38,1.31,4.45,1.33,3.32,1.65c4.04,4.49,7.78,9.4,10.57,14.93l.94,4.98c.8,4.28-.1,11.45-.81,16.93l-.66,5.16.7,5.73c-.35,2.98.59,5.17,1.05,7.98s-.53,6.7.29,9.72c.32,1.19,2.4,3.31,3.62,3.36l8.35.35c2.04.09,4.34,3.37,4.93,5.07l1.4,4.02c.52,1.51-.34,3.39-.65,5.02-.77,4.05-2.1,7.61-4.52,11.16-2.95,4.33-7.95,7.97-12.83,7.68l-7.66-.46-3.84-1.03-5.23-5.31-4.78.11-7.88,4.1ZM473.26,138.03l3.37-1.85,1.62-4.23-1.38-3.82c-2.43-3.24-8.69-2.94-11.94-.73-2.53,1.72-5.61,2.36-8.17.97-4.07-2.22-.83-6.79-2.79-7.19-2.27-.46-6.75,1.69-8.97,5.37l-2.62,4.36-5.53,7.03c-.55.7-1.05,2.12-.42,2.67l11.88-.32c1.85-.05,3.33-.81,5.19-.81s3.46-.32,5.22-.69c4.71-.98,9.36-.73,14.55-.75ZM435.26,182.5l5.26,1.34,16.89.04,4.06-1.05c7.98-2.07,17.28-5.04,19.91-13.08.78-2.39,1.75-5.07.78-7.52l-1.35-3.42c-2.71-3.22-6.81-2.52-10.31-1.44l-4.63,1.43-3.95,1.32-4.39,1.33-4.22,1.28c-3.32,1.01-6.7-.07-9.49-2.13l-2.53.69c-4.31,1.17-9.01,3.02-11.66,6.58-1.61,2.17-1.22,4.4-.63,6.63.88,3.3,2.21,6.97,6.28,8.01Z"/>
  <path d="M757.8,181.22c4.81,1.31,12.74-1.04,16.5-5.94l6.51-8.49,3.7-2.33,10.35.15,3.37,1.2c2.26.8,5.16,2.01,6.29,3.87,1.99,3.27,1.81,6.28.76,9.6-.47,1.48-.97,3.59-2.24,4.85-3.19,3.19-6.74,6.32-10.81,8.61l-15.11,6.38c-2.27.96-5,2.39-7.53,2.96-5.57,1.27-11.53-.18-17.45.63-2.3.31-5.22,2.01-7.51,1.04l-6.86-4.88c-6.33-2.86-11.76-6.67-16.54-11.63-1.98-2.06-4.4-4.15-5.82-6.48-1.65-2.7-3.14-5.56-4.17-8.41l-1.33-3.71-1.16-4.39-.84-6.77-.86-3.46.2-11.36,1.46-8.51,1.12-3.87,1.44-3.64c1.11-2.8,2.79-5.88,4.51-8.31l2.3-3.24,5.26-7.2c4.71-6.45,11.1-10.31,18.62-12.51,1.85-.54,3.4-.62,5.62-.93l6.22-.86,8.56,1.35,4.95,1.31,5.19,1.35,4.93,1.29,4.03,1.23,7.74,3.15,3.74,2.22c3.08,1.83,5.35,4.73,5.29,8.28l1.73,2.72,3.97,5.14c1.41,1.83,2.93,3.7,3.71,5.86,2.82,7.82-2.39,10.3-2.64,13.92-.29,4.21-1.65,7.84-5.98,9.32l-6.33.95-3.62,1.12c-4.37,1.35-6.21,4.83-11.24,5.08-2.13.1-5.16-.17-6.99.38-2.85.86-4.2.75-6.89-.23l-3.63-1.32c-4.22-1.53-9.8,2.74-15.56.6-2.11-2.6-5.58-2.45-8.3-.86-1.55.03-2.68.74-3.54,1.93-1.16,1.59-.91,2.66-.14,4.3,1.39,2.96,2.77,6.38,5.54,8.48,4.77,3.63,9.69,7.38,15.46,8.96l4.02,1.09ZM763.92,135.08c2.19-.62,4.28-1.5,6.21-.75l3.4,1.33c1.92.75,4.76,2.15,6.84.62,2.8-2.06-3.21-9.42-6.58-10.96l-2.78-1.27c-4.53-2.08-4-4.22-6.48-6.94l-4.43-.96-3.31,1.23-3.83,2.15c-3.38,1.89-6.34,4.99-10.44,5.35-4.79.43-7.98.76-8.03,5.2-.02,1.69.01,4.35,1.61,5.34l15.96.11c2.18.02,5.35,1.41,7.32.85l4.55-1.3Z"/>
  <path d="M295.7,203.99c-1.48,0-2.91-.69-3.94-1.25-3.63-.31-7.81-.44-11.46.11l-3.99,1.47c-5.93,2.19-10.81-1.02-14.5-6.04-4.95-6.74,2.83-12.54,9.69-16.79l17.07.08,3.55-2.16-.23-11.85-.77-5.18-.07-15.71c.6-1.13.98-2.25,1.24-3.55l1.19-1.73-.03-13.74-1.18-1.83c-.45-4.43-4.01-6.8-8.28-6.45-2.19.18-4.2.59-6.27,1.29-1.28.41-4.35.64-5.58.12l-4.36-1.84c-2.03-.86-4.35-4.58-4.59-6.85-.33-3.08-.28-5.66-.05-8.67.16-2.09,4.72-5.08,7.83-4.87,2.14.15,4.17-.72,6.14-.85,6.75-.45,13.57-.54,20.34.01,3.55.29,6.8,1.27,10.56.69l4.55,3.04c4.35,2.9,7-.85,10.25.24,9.96,3.34,18.07-3.84,20.67-4.24,3.96-.6,8.51-.74,12.48.09l4.03,1.36,5.79,2.84c3.89,1.9,7.72,4.69,9.72,8.65l2.53,5.01c-.04,1.83-.07,3.14,1.42,4.28l.02,17.15-2.75,3.93c-2.04,2.91-11.49,8.3-16.85,5.93-3.89-1.72-8-3.66-10.56-6.76-4.68-5.67-2.03-11.43-2.72-12.28-.34-.41-1.48-.43-2.14-.36l-4.68.5-3.15,1.4-6.36,3.23-3.9,2.92c-3.93,3.89-6.65,8.48-9.36,13.23l.04,22.83c0,1.45,1.03,3.22,1.25,4.65l.54,3.48,3.19,1.96c5.48-.11,10.49.27,15.96.95,2.27.28,5.26-.12,7.28.62l3.06,1.12c3.72,1.36,3.83,5.75,2.26,8.75-1.83,3.49-4.61,7.1-7.72,8.89-2.71,1.77-5.63,2.6-8.53.66l-11.73.14-4.66,1.27-22.27.08Z"/>
  <path d="M880.2,204.09c-2.01.06-3.44-.81-5.01-1.16-3.31-.74-7.39-.57-10.91-.07l-4.14,1.4c-1.38.47-3.14,1.13-4.7.88-8.57-1.39-13.45-10.2-10.49-14.71,2.3-3.5,5.93-7.66,10.08-8.55l17.13-.64c1.63-.06,3.13-1.85,3.67-2.89.69-1.33-.58-3.74-.62-4.98l-.41-12.72c-.14-4.45-1.08-9.97.22-14.23,2.08-6.82,3.32-12.96,1.1-20.07-.42-1.34-.61-2.68-1.58-3.78-6.34-7.19-13.26.26-19.22-1.91l-3.35-1.22c-3.28-1.2-4.28-4.67-5.21-7.86-.98-3.35-1.53-6.33.6-9.49,1.66-2.46,5.01-4.11,8.73-3.48,1.14.19,3.36-.97,4.45-.97l19.87.1,11.05.91,5.59,3.28c2.07,1.21,4.43.67,6.64-.35,1.68-.77,6.12,2.05,11.13.72l4.89-1.3c2.81-.75,5.22-3.61,8.33-3.84l5.08-.38c6.13-.46,15.89,4.08,21.36,8.21,2.11,1.59,3.95,4.14,4.96,6.41l2.43,5.47.87,5.81c.6,3.97.43,9.16.12,13.08l-1.18,3.27c-2.85,3.54-6.22,5.77-10.29,7.42-3.21,1.51-6.77,1.28-9.93-.54l-5.61-3.24c-5.16-2.98-6.55-8.45-5.42-14.35.34-1.76-5.21-1.43-8.73.19l-4.24,1.95c-5.08,2.33-9.57,5.65-12.46,10.62-1.74,3-4.85,6.29-4.84,9.9l.05,18.59,1.5,6.17.95,4.28,3.24,1.48c5.6-.15,10.6.3,16.08.89l8.06.87c3.43.37,4.59,2.87,4.53,6.23-.05,3.01-.71,5.11-2.85,7.3-1.88,1.93-4.02,4.24-6.16,5.6-2.95,1.86-4.9.96-7.87.4l-10.58-.27-2.45.8c-4.74.86-10.29.34-15.26.49l-9.22.26Z"/>
  <path class="cls-1" d="M196.77,203.45c-1.11.53-3.32,1.41-4.35,1.42l-14.93.27c-7.96.15-15.91.93-23.38-.5-4.22-.81-7.96-5.41-6.43-9.95.59-1.74,1.27-3.74,2.15-5.24l5.22.04,2.38-1.99c1.08-7.88-6.21-5.37-8.24-10.16-1.28-3.02-2.81-5.71-4.52-8.47l-4.42-7.14c-.87-1.4-2.45-2.77-4.26-2.9-2.58,2.62-4.6,5.03-6.83,7.88s-5.26,5.67-5.93,9.28c-.5,2.7-.14,5.71-.21,8.5-.11,4.02,4.44,1.39,10.26,2.3,1.02.16,2.61,1.79,3.49,2.41,2.36,1.64,4.46,3.5,6.09,6.07l.12,5.57-3.9,3.37c-2.19-1.19-4.27.72-6.17.72l-34.28.08c-2.95-1.86-5.23.37-6.84-5.82-1.01-3.88.8-8,3.49-10.97l3.78-1.12c2.77-.82,6.33-1.26,6.81-4.78l.58-4.27.43-5.7c.3-3.95.23-8.79.17-12.8,0-.6-.78-2.09-1.03-2.67,0-7.29-.23-14.54.18-21.85.28-5.02,1.76-9.85.51-14.78-.62-1.55-.69-3.44-.92-5.2l-1.03-8.19c-.12-.96.91-2.97,1.01-3.98.35-3.74.5-7.99-.11-11.58-.36-2.11-2.56-4.92-4.17-5.54l-3.32-1.27c-4.42-1.69-9.14-3.12-11.85-7.25s7.63-9.83,11.16-10.04c6.61-.4,12.91-.21,19.45-.13l3.9,1.56c3.19,1.28,6.17,3.33,7.63,6.27,3.5,7.05-2.2,9.16-3.74,13.56-.97,2.75.11,5.31,1.1,7.66l1.8,4.29c.95,2.25,1.44,4.31-.58,6.17l-.04,24.24-1.68,3.53c-.98,2.07-1.17,3.77-.24,6.1,1.88,4.73,8.44-1.86,12.26-6.66l4.24-5.33c1.82-2.28,2.55-4.93,3.29-7.72.45-1.71.85-3.01.08-4.75-1.46-3.28,2-10.32,8.46-11.01.48-.05,1.73-.77,2.21-1.02,2.91-.05,6.4-.15,9.22.22.74.1,2.32.92,3.12.91,8.48-.07,16.6-.24,24.74.55,3.03.29,4.29,2.97,4.97,5.15s.52,3.15-.14,5.18l-.75,2.27c-2.47,2.51-5.66,3.72-8.95,4.57l-4.12,1.06-4.55,1.31-11.44,4.51c-4.75,1.87-4.79,7.79-10.26,11.75-1.25.91-3.82,2.27-3.86,3.94l-.11,5.47c1.65,3.18,3.73,5.54,6.1,8.04s3.82,5.29,5.17,8.3l2.07,4.64,2.7,5.8c.72,1.54,2.29,3.56,3.4,4.72,3.33,3.48,7.07,4.39,11.45,4.91l6.17.73c5.7.67,9.03,3.06,9.25,9.06.08,2.14-.78,5.29-3.03,6.37Z"/>
  <path class="cls-1" d="M282.7,234.91c-1.3,2.19-5.34,2.33-8.23,1.03-.94-1.94-.78-5.18.27-7.2l3.32.11c1.58.05,3.34.39,4.39,1.53.78.85.84,3.52.24,4.53Z"/>
  <path class="cls-1" d="M904.85,233.34c-.85,3.64-7.03,4.12-8.69,2.9-.48-.35-.26-1.62-.29-2.32l-.22-4.88,5.88.09c1.29.02,3.03,2.85,3.32,4.21Z"/>
  <path class="cls-1" d="M477.15,239.43l-6.89.02c.34-1.29,1.32-2.81,2.05-3.38,2.27,1.41,5.04.43,4.98,1.34l-.14,2.02Z"/>
  <path class="cls-1" d="M928.65,239.32c-2.22.22-5.14.21-7.89-.14l3.41-3.65c.84,1.3,1.52,1.45,2.74,1.41l1.84-.07c.46-.02.23,1.94-.1,2.45Z"/>
  <path class="cls-1" d="M392.64,239.47l-7.9-.12,3.25-4.14.73,1.39c.18.35,1.2.31,1.7.31h1.82c.36-.02.35.97.4,2.55Z"/>
  <path class="cls-1" d="M790.6,239.35l-9.79.15c.27-1.89,1.66-2.36,3.21-3.04l2.82-1.23,3.76,4.13Z"/>
  <path class="cls-1" d="M311.05,239.34l-9.73.16c.26-1.9,1.66-2.36,3.21-3.04l2.82-1.24,3.7,4.12Z"/>
</svg>
