<?xml version="1.0" encoding="UTF-8"?>
<svg id="Ebene_1" xmlns="http://www.w3.org/2000/svg" version="1.1" viewBox="0 0 1024 1024">
  <defs>
    <style>.st0 { fill: #fe6a2f; }</style>
  </defs>
  <g>
    <path class="st0" d="M335.68,404.89c2.95,3.65,7.69,9.15,9.72,13.77,2.18,4.97.75,6.78.91,11.01,1,27.87-16.78,60.69-38.46,78.56-5.1,4.21-20.15,14.58-25.79,17.21-3.23,1.51-7.12,1.75-10.63,1.87-.07,19.19,1.08,38.39,3.96,57.38,1.05,24.66-11.09,21.42-31.06,20.06-2.29-1.13-4.9-14.55-5.31-17.69-5.53-41.69.82-85.91,1.29-128.28.05-4.56-.33-9.64,0-14.08.8-10.54,5.2-21.57,4.04-32.47-4.51.53-9.44-1.95-13.57-3.93-1.1-.53-2.81-.93-2.43-2.55,9.44-3.62,17.8-12.17,27.73-14.28,24.02-5.1,50.39-5.38,72.6,5.93,4.38,2.23,4.43,4.32,7,7.5h0ZM270.35,507.22c3.5,3.44,24.41-15.62,27.52-18.97,14.75-15.89,30.21-46.48,22.18-68.23-1.73-4.67-6.61-12-11.68-13.32-4.52-1.18-21.4-.43-26.04,1.04-.9.28-3.85,1.38-4.03,2.16l-7.96,97.33h.01Z"/>
    <path class="st0" d="M626.34,385.23l22.53-1.05c5.54-.45,20.44,8.42,23.18,12.34.78,1.12,5.19,14.96,5.21,16.18.04,2.13-3.43,10.88-4.54,13.39-3.92,8.81-12.52,22.97-19.33,29.67-4.19,4.12-11.94,7.94-15.97,12.03-.81.82-1.44.88-1.06,2.42,1.2.07,2.17.65,3.02,1.46,6.7,6.37,13,15.53,20.07,20.97,3.81,2.94,16.49,12.61,19.89,14.11,10.38,4.56,11.71,5.02,21.08,11.92,2.6,1.91,7.3,2.07,6.99,6.01-2.46,3.38-5.21,10.12-9.65,10.54-11.57-3.12-22.25-9.86-33.38-14.52-13.27-5.56-27.69-11.12-37.12-22.88l-12.88-8.59c-3.29,4.59-.31,5.43.01,9.47.85,10.7-1.64,23.53-1.07,35.07.18,3.69,2.68,10.86,1.88,13.73-2.12,7.58-25.39,8.35-30.87,3.05.51-10.42-2.22-19.3-2.01-29.86.79-38.15,6.34-82.46,11.14-120.86.87-6.97,3.93-13.45,2.05-20.89.69-2.41,7.02-4.32,9.44-4.62,3.02-.37,16.99.67,18.98,1.85,3.17,1.88,2.5,5.92,2.43,9.07h-.02ZM652.2,399.36c-10.76-1.68-20.22,2.67-29.35,7.86-.55,5.71-2.5,10.97-3.38,16.62-.45,2.89.16,5.85-.25,8.75-.81,5.81-3.75,16.06-3.57,21.33.06,1.8.78,3.23,2.26,4.27l13.94-8.96c7.97-10.48,22.5-27.83,22.57-41.51.02-2.96-1.34-5.66-2.23-8.37h0Z"/>
    <path class="st0" d="M538.34,486.22l-3.07.62c-.75,3.73-3.7,6.35-5.35,9.47-.47.89.11,2.27-.51,3.46-4.13,7.91-13.49,22.62-20.08,28.94-3.9,3.74-9.21,4.13-14.5,4.5-6.94.49-14.74,1.14-20.03-3.95-6.95-6.69-11.04-24.12-12.45-33.55-1.98-13.17-2.61-32.33-2.04-46.03.53-12.85,5.37-30.76,4.91-43.01-.12-3.04-5.61-9.76,2.72-10.44,6.06-.49,20.8.46,26.66,2.24,11.51,3.49,5.65,17.25,4.85,25.36-2.2,22.31-3.12,41.6-1.11,63.91.68,7.57.16,15.62,3.53,22.5,1.6.06,3.3-1.52,4.5-2.5,10.78-8.75,18.89-30.46,24.5-43.5,7.69-17.87,13.16-40.07,17.8-59.2.65-2.69,1.74-13.26,2.13-13.86.57-.87,3.96-1.84,5.13-1.88,2.8-.09,12.11.5,14.96.88,12.05,1.61,3.42,11.63,1.71,17.8-1.98,7.16-4.31,18.09-5.48,25.51-3.82,24.14-7.88,44.45-6.82,70.28.15,3.59,2.42,10.99,1.66,13.48-1.86,6.1-13.87,6.95-19.08,5.94-5.54-1.06-2.24-6.99-2.48-11.5-.43-8.26-3.36-16.79-2.06-25.48h0Z"/>
    <path class="st0" d="M357.59,619.98c-1.6-2.78-1.4-14.08-3.52-18.99-3.4-7.87-7.56-8.3-14.23-3.77-20.6,14-22.96,41.62-30.58,63.24-1.52,4.31-2.55,14.93-2.92,21.27-1.22,20.86-1.23,42.48,8.49,61.49,5.38,10.53,13.05,11.56,22.53,4.53,2.37-1.76,17.18-19.98,18.43-22.57.87-1.8.52-3.78,1.86-6.14,2.05-3.62,5.82-5.31,9.77-4.18,7.31,2.09,5.03,6.93,2.63,12.58-1.62,3.8-8.31,14.36-10.89,18.11-16.22,23.54-55.61,39.67-75.26,11.61-28.17-40.23-11.04-128.35,18.02-164.86,13.89-17.45,35.8-26.25,55.91-12.07,12.25,8.64,15.05,21.18,15.54,35.53.36,10.63-14.06,7.2-15.78,4.21h0Z"/>
    <path class="st0" d="M422.99,533.88l-1.97,1.56c-16.01,36.63-66.81,38.63-76.41-3.99-7.6-33.73,11.99-89.08,34.32-115.14,1.84-2.15,9.1-9.79,11.06-10.94,6.33-3.7,18.42-1.98,25.72-1.02,16.27,2.14,28.29,5.05,32.18,22.82,5.43,24.82-.93,47.71-7.84,71.26-3.74,12.73-11.42,23.6-17.07,35.45h.01ZM420.05,427.91c-2.89,2.35-7.27,4.28-10.23,7.28-9.6,9.75-22.28,35.88-26.04,48.96-3.3,11.49-6.53,32.55-6.51,44.56.03,16,8.26,23.66,22.39,13.32,17.22-12.6,36.85-70.38,35.67-91.31-.32-5.76-2.85-23.9-6.12-27.88-3.69-4.5-6.45,2.85-9.17,5.06h.01Z"/>
    <path class="st0" d="M477.15,551.51c3.4-.31,13.7-.68,16.64-.22,1.82.29,3.4.92,4.45,2.54,2.27,9.65,5.94,18.87,8.59,28.39,3.22,11.54,5.31,23.6,7.75,35.26.47,2.25,3.75,13.52,4.8,14.2,2.07,1.33,3.99-.25,5.72,3.32,3.18,6.53-3.5,8.73-3.68,11.65-.23,3.84,3.17,17.18,4.41,21.59,3.7,6.82,4.35,15.87,6.37,23.54-.24,6.85-18.29,12.52-22.32,6.41-1.2-6.99-5.57-14.21-7.3-20.7-1.34-5.03-2.59-22.77-5.66-25.36l-2.07-.88-35.57,9.43c-2.69,1.93-2.82,22.51-4.17,26.83-1.57,5.05-15.04,5.5-19.26,4.68-1.65-.32-2.78-1.07-3.38-2.69,4.31-18.65,6.17-37.8,10.13-56.5,4.62-21.8,11.12-46.21,17.4-67.6,3.54-12.05,4.57-12.75,17.12-13.9h.03ZM493.13,636.02c1.36-2.83-1.1-5.28-1.52-7.57-2.32-12.66-4.47-25.63-7.93-38.07-1.34-4.83-3.13-11.49-6.33-15.16l-16.01,69.47,2.27,1.35,29.53-10.02h-.01Z"/>
    <path class="st0" d="M419.17,581.39c2.6,3.89.28,7.72.19,11.34-.7,27.94-1.36,56.13-2.82,83.99-.14,2.63,2.51,5.6-1.19,8.01,4.13,1.64.94,8.74.93,12.99-.01,7.43,2.05,15.69,1.12,23.45,5.88,2.05,10.82-.48,16.45-.93,18.24-1.45,35.03-5.06,52.83-6.38,1.27-.09,2.33-1.34,3.95-1.36,7.7-.07,7.28,6.94,6.25,12.78-1.88,10.69-8.3,6.67-16.12,9.88-16.53.68-32.12,5.29-48.17,7.83-14.99,2.37-29.95,4.38-45.17,3.14-.48-8.11.3-16.33-.05-24.45-1.67-38.14-.51-71.22,1.95-108.97.52-7.93-.4-18.26,1.03-25.97,1.19-6.46,23.16-7.12,28.81-5.35h0Z"/>
    <path class="st0" d="M597.23,601.11c-7.49-.87-11.94-1.68-19.11,1.38-9.8,4.18-14.49,14.64-11.29,24.74.31.98,6.42,13.39,6.92,13.99,3.23,3.93,15.53,9.9,20.52,13.58,9.12,6.74,16.62,13.44,20.82,24.18,7.86,20.12-15.73,38.65-31.74,45.73-13.56,5.99-25.62,7.8-40.53,6.55-9.74-.82-10.56-8.63-9.31-16.9,2.34-1.47,17.98,1.98,22.29,1.89,16.64-.34,45.88-19.07,27.05-36.03-3.53-3.17-7.32-3.12-10.82-5.18-20.45-12.08-38.72-23.55-36.71-50.36.78-10.36,9.1-27.48,18.13-32.87,8.62-5.15,24.22-10.11,33.91-6.09,4.78,1.98,12.6,9.89,9.88,15.4h-.01Z"/>
    <path class="st0" d="M645.66,636.92c1.48,1.58,4.87,3.01,6.7,4.79,13.15,12.79,38.81,37.78,35.75,57.77-2.9,18.94-31.97,34.03-48.54,39.45-3.94,1.29-18.8,3.86-21.29.86-.94-1.13-2.86-10.48-2.87-12.23-.03-6.92,10.83-4.76,15.19-5.61,20.67-4.03,38.19-17.15,23.77-39.25-16.04-24.58-54.28-36.13-43.17-72.15,5.32-17.24,17.79-25.68,35.7-24.38,2.46.18,15.65,3,17.04,3.96,3.07,2.13,6.57,13.35,3.47,15.66-5.75-.75-21.61-1.78-24.59,4.43-.53,1.12.46,2.6.2,3.32-2.25,6.18-3.01,8.79-1.65,16.16.08.42,3.92,6.8,4.3,7.21h-.01Z"/>
    <path class="st0" d="M442.34,252.22c22.35-1.62,18.86,4.93,17.95,22.46-.46,8.94-.66,18.57-.91,28.08-.11,4.17-2.61,15.2-.54,18.46.91,1.44,3.9.95,3.55,4.46-.31,3.13-4.23,3.21-4.9,5.2l-4.35,39.65c-1.13,4-11.82,2.92-15.36,2.82l-1.24-1.83,1.79-37.29-30.37,2.13c-3.39,1.11-3.23,16.2-3.64,19.36-.78,6.04-2.17,12.1-2.61,18.18-.15,2.1,1.19,4.1.46,6.63-1.55,5.33-15.04,4.25-15.89-4.73-1.63-17.1,3.41-38.91,5.05-56.07,1.45-15.19,4.78-36.34,4-50.98-.16-2.92-2.45-13.19-1.92-14.87,1.05-3.31,15.99-.65,18.44,1.35.89.73,1.94,1.58,2.28,2.72l-5.72,65.67c1.02,3.61,13.38.82,16.44.64,10.38-.64,14.32,3.98,15.47-8.53,1.35-14.57,2.22-29.19,2.06-44.02-.07-6.28-1.81-12.62-.04-19.46v-.03Z"/>
    <path class="st0" d="M472.34,320.22l8-1.73c1.72-14.98,3.24-30.29,2.57-45.33l-1.2-.8c-3.55,1.02-13.61-1.06-10.27-6.05.88-1.31,27.23-2.32,31.36-4.13,11.34.47,22.76,1.51,34.01,2.08,2.79.14,25.51-1.82,16.9,4.82-9.6,7.4-41.1,1.85-43.87,5.13-.61.72-4.06,15.41-4.38,17.62-.47,3.13-2.4,24.42-1.66,25.47,7.49,3.6,29.26-3.74,35.15.84,1.88,1.46,2.27,5.12-.24,5.94l-36.95,5.05c-1.76,1.42-6.06,29.6-4.79,32.12.52,1.03,1.47,1.9,2.7,1.79l53.2-13.37c3.02,1.63,7.38,4.03,3.43,6.99-3.42,2.56-13.32,7.47-17.56,9.45-12.92,6.01-39.24,14.83-53.16,14.84-2.41,0-10.35-1.19-11.09-3.36-1.46-4.28,1.46-6.84,1.81-9.92.41-3.61-.26-7.32.07-10.93.78-8.69,1.82-17.45,2.94-26.1-2.01-4.51-8.66-3.55-6.96-10.41h-.01Z"/>
    <path class="st0" d="M385.14,283.01c-5.41,3.52-22.73-2.01-25.34,4.26-.82,1.96.55,3.44.29,5.2-3.71,25.17-8.81,53.98-7.78,79.3.31,7.59,5.52,12.61-6.41,13.51-4.81.37-11.85-1.31-15.01-5.09-2.52-3.01-2.05-12.7-1.99-17.12.26-19.23,3.38-39.55,5.96-58.85.41-3.09,5.75-17.63,1-17.76-.35-.01-1.67,1.5-3.08,1.69-3.44.48-14.71,1.51-17.2.34-4.36-2.05-4.85-11-4.79-15.25,1.22-2.41,12.81-3.63,16.07-4,16.08-1.83,32.07-.73,48.03-.97,3.93-.06,6.92-2.67,10.54.38,4.26,3.59-.14,9.7-.29,14.37h0Z"/>
  </g>
</svg>
