<?xml version="1.0" encoding="UTF-8"?>
<svg id="Ebene_1" data-name="Ebene 1" xmlns="http://www.w3.org/2000/svg" viewBox="0 0 841.89 595.28">
  <defs>
    <style>
      .cls-1 {
        fill: #fff;
      }
    </style>
  </defs>
  <g>
    <path class="cls-1" d="M206.33,351.13v1.56s-44.52,6.51-44.52,6.51h-.78c-2.34,0-4.43-2.08-4.43-4.43v-3.91c-23.95,12.24-68.47,16.66-68.47-27.34v-72.64c0-6.51-4.69-11.72-10.67-12.76v-1.56s44.52-6.51,44.52-6.51h.78c2.6,0,4.43,1.82,4.43,4.43v85.39c0,13.28-13.54,16.66-13.54,26.3,0,5.47,7.55,9.11,17.7,9.11,13.02,0,23.69-5.21,25.25-5.99v-98.41c0-6.51-4.69-11.72-10.67-12.76v-1.56s44.52-6.51,44.52-6.51h.78c2.6,0,4.43,1.82,4.43,4.43v103.88c0,6.25,4.69,11.72,10.67,12.76Z"/>
    <path class="cls-1" d="M337.91,356.34v1.56s-16.14,0-16.14,0h-44.26s0-1.56,0-1.56c5.99-1.04,10.67-6.51,10.67-12.76v-76.8c0-13.28,13.54-16.66,13.54-26.3,0-5.73-7.29-9.11-17.7-9.11-11.46,0-21.09,3.9-25.25,5.99v106.22c0,6.25,4.69,11.72,10.67,12.76v1.56s-60.4,0-60.4,0v-1.56c5.99-1.04,10.67-6.51,10.67-12.76v-92.68c0-6.51-4.69-11.72-10.67-12.76v-1.56s44.52-6.51,44.52-6.51h.78c2.6,0,4.43,1.82,4.43,4.43v1.04c23.95-11.98,68.47-16.4,68.47,27.6v80.45c0,6.25,4.69,11.72,10.67,12.76Z"/>
    <path class="cls-1" d="M391.27,267.56v76.02c0,6.25,4.69,11.72,10.67,12.76v1.56s-60.4,0-60.4,0v-1.56c5.99-1.04,10.67-6.51,10.67-12.76v-65.35s0-67.75,0-67.75c0-16.4,21.35-36.71,45.82-36.71,26.56,0,50.25,20.31,50.25,36.71,0,11.19-9.11,20.31-20.31,20.31s-20.05-9.11-20.05-20.31c0-10.93,11.19-15.62,11.19-24.99,0-8.85-14.84-10.15-21.09-10.15s-21.09,1.3-21.09,10.15c0,10.41,13.28,14.58,14.32,24.99v55.52"/>
    <path class="cls-1" d="M523.55,293.33c0,36.45-26.56,65.87-59.36,65.87-32.8,0-59.36-29.42-59.36-65.87,0-36.45,26.55-65.87,59.36-65.87,32.8,0,59.36,29.42,59.36,65.87ZM484.24,293.33c0-42.96-7.03-64.31-20.05-64.31-13.02,0-20.31,21.35-20.31,64.31s7.29,64.31,20.31,64.31c13.02,0,20.05-21.61,20.05-64.31Z"/>
    <path class="cls-1" d="M572.91,343.58c0,6.25,4.69,11.72,10.67,12.76v1.56s-60.4,0-60.4,0v-1.56c5.99-1.04,10.67-6.51,10.67-12.76v-147.09c0-6.25-4.69-11.72-10.67-12.76v-1.56s44.52-6.51,44.52-6.51h.78c2.6,0,4.43,2.08,4.43,4.69v163.24Z"/>
    <path class="cls-1" d="M711.58,351.13v1.56s-44.52,6.51-44.52,6.51h-.78c-2.34,0-4.43-2.08-4.43-4.69v-6.25c-9.63,7.81-21.35,11.98-33.32,10.67-26.29-2.6-45.3-29.68-45.3-62.22,0-41.13,28.9-69.25,55.71-69.25,8.85,0,17.7,2.6,22.91,5.47v-36.45c0-6.25-4.69-11.72-10.67-12.76v-1.56s44.52-6.51,44.52-6.51h.78c2.6,0,4.43,2.08,4.43,4.69v158.03c0,6.25,4.69,11.72,10.67,12.76ZM661.86,346.18v-111.43c-2.86-1.3-5.73-2.08-8.59-2.08-17.18,0-31.24,25.77-31.24,57.8,0,32.02,14.06,57.8,31.24,57.8,2.86,0,5.73-.78,8.59-2.08Z"/>
  </g>
  <g>
    <path class="cls-1" d="M123.26,413.79c-1.61,0-3.1-.28-4.48-.84-1.38-.56-2.57-1.34-3.56-2.34-1-1-1.78-2.19-2.34-3.56-.56-1.38-.84-2.87-.84-4.48,0-1.61.28-3.11.85-4.48.57-1.38,1.35-2.57,2.35-3.58,1-1.01,2.18-1.8,3.55-2.37,1.36-.57,2.84-.86,4.43-.86,1.67,0,3.23.32,4.67.97,1.44.64,2.69,1.57,3.74,2.77l-3.28,3.19c-.63-.73-1.36-1.3-2.21-1.72-.85-.42-1.78-.63-2.79-.63-.92,0-1.77.17-2.55.5-.77.33-1.44.8-2.01,1.39-.57.59-1.01,1.3-1.32,2.12-.31.81-.47,1.7-.47,2.64,0,.97.16,1.86.48,2.68.32.81.77,1.53,1.34,2.12.57.6,1.25,1.07,2.05,1.4.79.33,1.66.5,2.61.5,1.03,0,1.98-.22,2.84-.64.86-.43,1.59-1.01,2.19-1.74l3.29,3.13c-1.03,1.22-2.27,2.17-3.72,2.84-1.45.67-3.06,1-4.82,1Z"/>
    <path class="cls-1" d="M156.52,391.74h6.77c1.12,0,2.15.17,3.11.52.96.34,1.78.83,2.47,1.45.69.63,1.22,1.37,1.61,2.23.39.86.58,1.79.58,2.8,0,1.29-.31,2.45-.94,3.5-.62,1.04-1.48,1.85-2.58,2.43l5.06,8.67h-5.48s-4.19-7.57-4.19-7.57h-1.71v7.57s-4.71,0-4.71,0v-21.6ZM163.07,401.6c1.01,0,1.81-.25,2.4-.76.59-.5.89-1.2.89-2.08,0-.88-.3-1.54-.9-1.97-.6-.43-1.4-.64-2.38-.64h-1.84v5.44h1.84Z"/>
    <path class="cls-1" d="M197.18,391.74h12.35s0,4.42,0,4.42h-7.64v3.96h5.58s0,4.41,0,4.41h-5.58v4.39h7.8s0,4.41,0,4.41h-12.51s0-21.6,0-21.6Z"/>
    <path class="cls-1" d="M241.8,391.35h3s8.51,21.99,8.51,21.99h-4.96s-1.32-3.64-1.32-3.64h-7.44s-1.29,3.65-1.29,3.65h-5s8.51-21.99,8.51-21.99ZM245.57,405.63l-2.25-6.35-2.29,6.35h4.54Z"/>
    <path class="cls-1" d="M282.22,396.16h-6.29s0-4.42,0-4.42h17.28s0,4.42,0,4.42h-6.29s0,17.18,0,17.18h-4.71s0-17.18,0-17.18Z"/>
    <path class="cls-1" d="M317.94,391.74h4.71s0,21.6,0,21.6h-4.71s0-21.6,0-21.6Z"/>
    <path class="cls-1" d="M346.89,391.74h4.9s4.71,12.87,4.71,12.87l4.77-12.87h4.83s-8.38,21.99-8.38,21.99h-2.48s-8.35-21.99-8.35-21.99Z"/>
    <path class="cls-1" d="M390.35,391.74h12.35s0,4.42,0,4.42h-7.64v3.96h5.58s0,4.41,0,4.41h-5.58v4.39h7.8s0,4.41,0,4.41h-12.51s0-21.6,0-21.6Z"/>
    <path class="cls-1" d="M463.11,413.92c-1.68,0-3.18-.38-4.51-1.13-1.33-.75-2.41-1.84-3.23-3.25l3.29-2.74c1.12,2,2.59,3,4.42,3,.81,0,1.48-.2,1.98-.6.5-.4.76-.92.76-1.56,0-.6-.25-1.13-.74-1.56-.5-.44-1.39-.94-2.68-1.5-2-.88-3.46-1.86-4.37-2.95-.91-1.08-1.37-2.38-1.37-3.88,0-.95.17-1.82.52-2.61.34-.79.83-1.48,1.45-2.04.63-.57,1.36-1.01,2.22-1.32.86-.31,1.8-.47,2.84-.47,2.73,0,5.04,1.17,6.93,3.51l-3.13,2.84c-.6-.79-1.2-1.38-1.8-1.75-.6-.38-1.27-.57-2-.57s-1.27.18-1.69.54c-.42.35-.63.83-.63,1.43,0,.67.28,1.22.84,1.65.56.43,1.4.89,2.52,1.39,2.04.9,3.52,1.91,4.43,3.01.91,1.11,1.37,2.41,1.37,3.92,0,.99-.18,1.89-.54,2.71-.37.81-.87,1.52-1.52,2.11-.64.59-1.42,1.05-2.34,1.37-.91.32-1.92.49-3.01.49Z"/>
    <path class="cls-1" d="M500.34,396.16h-6.29s0-4.42,0-4.42h17.28s0,4.42,0,4.42h-6.29s0,17.18,0,17.18h-4.71s0-17.18,0-17.18Z"/>
    <path class="cls-1" d="M544.7,413.79c-1.29,0-2.47-.22-3.55-.67-1.08-.45-2-1.08-2.77-1.89-.77-.81-1.38-1.77-1.82-2.9-.44-1.13-.66-2.36-.66-3.69v-12.9s4.71,0,4.71,0v12.83c0,1.44.37,2.57,1.12,3.4.74.83,1.72,1.24,2.95,1.24,1.22,0,2.21-.41,2.97-1.24.75-.83,1.13-1.96,1.13-3.4v-12.83s4.71,0,4.71,0v12.9c0,1.33-.22,2.56-.66,3.69-.44,1.13-1.05,2.1-1.82,2.9-.77.81-1.7,1.44-2.77,1.89-1.08.45-2.25.68-3.51.68Z"/>
    <path class="cls-1" d="M579.81,391.74h8.55c1.61,0,3.1.27,4.46.82,1.36.55,2.55,1.3,3.55,2.25,1,.96,1.78,2.1,2.35,3.42.57,1.32.86,2.75.86,4.3s-.29,2.98-.85,4.29c-.57,1.31-1.35,2.45-2.35,3.42-1,.97-2.18,1.73-3.55,2.27-1.36.55-2.85.82-4.46.82h-8.55s0-21.6,0-21.6ZM588.39,408.92c.9,0,1.73-.16,2.48-.49.76-.32,1.41-.77,1.97-1.34.56-.57.99-1.24,1.31-2.02.31-.77.46-1.62.46-2.55,0-.92-.15-1.77-.46-2.55-.31-.77-.75-1.44-1.31-2.02-.56-.57-1.21-1.01-1.97-1.34-.75-.32-1.58-.48-2.48-.48h-3.87v12.77h3.87Z"/>
    <path class="cls-1" d="M624.78,391.74h4.71s0,21.6,0,21.6h-4.71s0-21.6,0-21.6Z"/>
    <path class="cls-1" d="M665.85,413.79c-1.59,0-3.06-.29-4.41-.87-1.35-.58-2.53-1.38-3.53-2.38-1-1.01-1.79-2.2-2.35-3.56-.57-1.36-.86-2.84-.86-4.43,0-1.59.28-3.07.85-4.45.57-1.38,1.35-2.57,2.35-3.58,1-1.01,2.17-1.8,3.53-2.37,1.35-.57,2.83-.86,4.41-.86,1.57,0,3.04.28,4.4.85,1.37.57,2.55,1.36,3.55,2.37,1,1.01,1.79,2.2,2.35,3.58.57,1.37.86,2.86.86,4.45,0,1.59-.28,3.07-.85,4.43-.57,1.36-1.35,2.55-2.35,3.56-1,1.01-2.18,1.8-3.55,2.39-1.36.58-2.83.87-4.4.87ZM665.85,409.21c.9,0,1.73-.17,2.48-.5.75-.33,1.4-.8,1.95-1.4.55-.6.98-1.31,1.29-2.12.31-.82.47-1.7.47-2.65s-.16-1.83-.47-2.64c-.31-.82-.74-1.52-1.29-2.11-.54-.59-1.2-1.06-1.95-1.4-.75-.35-1.58-.52-2.48-.52-.9,0-1.73.17-2.48.52-.75.34-1.4.81-1.95,1.4-.54.59-.98,1.3-1.29,2.12-.31.81-.47,1.7-.47,2.64s.16,1.83.47,2.65c.31.81.74,1.52,1.29,2.11.55.59,1.2,1.06,1.95,1.4.75.35,1.58.52,2.48.52Z"/>
  </g>
</svg>
