<?xml version="1.0" encoding="UTF-8"?>
<svg id="Ebene_1" data-name="Ebene 1" xmlns="http://www.w3.org/2000/svg" viewBox="0 0 1000 1000">
  <defs>
    <style>
      .cls-1 {
        font-family: Nunito-SemiBold, Nunito;
        font-size: 45px;
        font-weight: 600;
      }
      .cls-1, .cls-2 { fill: #fff; }
      .cls-3 { letter-spacing: .38em; }
      .cls-4 { letter-spacing: .45em; }
      .cls-5 { letter-spacing: .45em; }
      .cls-6 { letter-spacing: .46em; }
    </style>
  </defs>
  <g>
    <path class="cls-2" d="M292.51,587.98v1.72l-49.08,7.18h-.86c-2.58,0-4.88-2.3-4.88-4.88v-4.31c-26.41,13.49-75.49,18.37-75.49-30.14v-80.08c0-7.18-5.17-12.92-11.77-14.06v-1.72l49.08-7.18h.86c2.87,0,4.88,2.01,4.88,4.88v94.15c0,14.64-14.93,18.37-14.93,28.99,0,6.03,8.32,10.05,19.52,10.05,14.35,0,26.12-5.74,27.84-6.6v-108.5c0-7.18-5.17-12.92-11.77-14.06v-1.72l49.08-7.18h.86c2.87,0,4.88,2.01,4.88,4.88v114.53c0,6.89,5.17,12.92,11.77,14.06Z"/>
    <path class="cls-2" d="M437.58,593.72v1.72h-66.59v-1.72c6.6-1.15,11.77-7.18,11.77-14.07v-84.68c0-14.64,14.93-18.37,14.93-28.99,0-6.31-8.04-10.05-19.52-10.05-12.63,0-23.25,4.31-27.84,6.6v117.11c0,6.89,5.17,12.92,11.77,14.07v1.72h-66.59v-1.72c6.6-1.15,11.77-7.18,11.77-14.07v-102.19c0-7.18-5.17-12.92-11.77-14.06v-1.72l49.08-7.18h.86c2.87,0,4.88,2.01,4.88,4.88v1.15c26.41-13.2,75.49-18.08,75.49,30.43v88.7c0,6.89,5.17,12.92,11.77,14.07Z"/>
    <path class="cls-2" d="M496.42,495.84v83.82c0,6.89,5.17,12.92,11.77,14.07v1.72h-66.59v-1.72c6.6-1.15,11.77-7.18,11.77-14.07v-146.75c0-18.08,23.54-40.47,50.52-40.47,29.28,0,55.4,22.39,55.4,40.47,0,12.34-10.05,22.39-22.39,22.39s-22.1-10.05-22.1-22.39,12.34-17.22,12.34-27.56c0-9.76-16.36-11.19-23.25-11.19s-23.25,1.44-23.25,11.19c0,11.48,14.64,16.07,15.79,27.56v61.21"/>
    <path class="cls-2" d="M642.25,524.25c0,40.19-29.28,72.62-65.45,72.62s-65.45-32.44-65.45-72.62,29.28-72.62,65.45-72.62,65.45,32.44,65.45,72.62ZM598.91,524.25c0-47.36-7.75-70.9-22.1-70.9s-22.39,23.54-22.39,70.9,8.04,70.9,22.39,70.9,22.1-23.82,22.1-70.9Z"/>
    <path class="cls-2" d="M696.68,579.65c0,6.89,5.17,12.92,11.77,14.07v1.72h-66.59v-1.72c6.6-1.15,11.77-7.18,11.77-14.07v-162.18c0-6.89-5.17-12.92-11.77-14.06v-1.72l49.08-7.18h.86c2.87,0,4.88,2.3,4.88,5.17v179.97Z"/>
    <path class="cls-2" d="M849.57,587.98v1.72l-49.08,7.18h-.86c-2.58,0-4.88-2.3-4.88-5.17v-6.89c-10.62,8.61-23.54,13.2-36.74,11.77-28.99-2.87-49.94-32.72-49.94-68.6,0-45.35,31.86-76.35,61.43-76.35,9.76,0,19.52,2.87,25.26,6.03v-40.19c0-6.89-5.17-12.92-11.77-14.06v-1.72l49.08-7.18h.86c2.87,0,4.88,2.3,4.88,5.17v174.23c0,6.89,5.17,12.92,11.77,14.06ZM794.75,582.52v-122.85c-3.16-1.44-6.31-2.3-9.47-2.3-18.94,0-34.44,28.42-34.44,63.72s15.5,63.72,34.44,63.72c3.16,0,6.31-.86,9.47-2.3Z"/>
  </g>
  <text class="cls-1" transform="translate(161.85 672.35)"><tspan class="cls-6" x="0" y="0">CR</tspan><tspan class="cls-4" x="103.09" y="0">E</tspan><tspan class="cls-3" x="149.62" y="0">A</tspan><tspan class="cls-6" x="199.62" y="0">TIVE </tspan><tspan class="cls-5" x="412.56" y="0">S</tspan><tspan class="cls-6" x="460.89" y="0">TUDIO</tspan></text>
</svg>
