<?xml version="1.0" encoding="UTF-8"?>
<svg id="Ebene_1" data-name="Ebene 1" xmlns="http://www.w3.org/2000/svg" viewBox="0 0 1000 1000">
  <path d="M440.72,697.49c-67.62,33.82-175.93,41.42-188-56.27-.41-3.31-.88-8.1-1.07-11.41-3.91-69.71,3-142.89-.11-212.96-2.52-15.3-13.44-26.38-28.28-30.26v-3.98s121.02-18.16,121.02-18.16c6.29-.86,10.88,1.79,14.13,6.96l.71,246.88c-2.44,27.25-37.97,44.35-37.32,66.15.25,8.3,7.91,15.29,14.9,18.68,25.36,12.3,71.08,5.17,96.03-6.43,2.47-1.15,7.52-2.91,7.99-5.44v-274.49c-1.36-18.92-7.04-30.99-26.79-35.12l.33-3.83,120.96-18.2c6.72-.75,13.08.95,15.23,7.88.64,2.08-.09,7.17,2.07,6.53,56.56-28.6,155.99-40.12,181.2,34.79,4.18,12.42,5.91,27.45,6.5,40.53,3.41,75.53-2.7,153.56.04,229.34,3.05,14.25,14.02,26.1,28.61,28.49l.1,4.7h-166.04l.1-4.7c14.59-2.39,25.57-14.24,28.61-28.49l.04-216.87c.73-9.18,2.46-17.61,6.95-25.68,9.03-16.2,45.87-41.25,24.69-61.54-21.93-21-86.39-9.5-111.27,4.71l-.95,1.93c-4.72,94.78-2.32,189.97-2.86,285.04,1.03,10.91,8.05,22.13,17.56,27.55,4.74,2.7,13.39,2.77,12.13,8.4l-123.33,18.32c-4.68,1.05-13.87-4.51-13.87-9.15v-13.92Z"/>
</svg>
